<svg viewBox="0 0 900 1000" xmlns="http://www.w3.org/2000/svg" font-family="Helvetica, Arial, sans-serif">
  <defs>
    <marker id="arrow" markerWidth="10" markerHeight="10" refX="8" refY="3" orient="auto" markerUnits="strokeWidth">
      <path d="M0,0 L0,6 L9,3 z" fill="#444"/>
    </marker>
  </defs>

  <style>
    .box { fill: #f5f5f7; stroke: #333; stroke-width: 1.5; rx: 8; }
    .box-accent { fill: #eef4ff; stroke: #2b5fad; stroke-width: 1.5; rx: 8; }
    .box-warn { fill: #fff4e5; stroke: #b5760a; stroke-width: 1.5; rx: 8; }
    .label { font-size: 15px; fill: #111; font-weight: 600; }
    .sublabel { font-size: 11px; fill: #555; }
    .arrow { stroke: #444; stroke-width: 1.5; fill: none; marker-end: url(#arrow); }
    .branch-label { font-size: 14px; fill: #111; font-weight: 700; }
  </style>

  <text x="450" y="35" text-anchor="middle" font-size="22" font-weight="700" fill="#111">Elenchus — Architecture</text>
  <text x="450" y="58" text-anchor="middle" font-size="13" fill="#666">Slack claim verification agent — deployed on Render</text>

  <rect x="60" y="75" width="200" height="50" class="box-warn"/>
  <text x="160" y="96" text-anchor="middle" class="label" font-size="13">Render (hosting)</text>
  <text x="160" y="112" text-anchor="middle" class="sublabel">Runs app.py 24/7</text>

  <rect x="640" y="75" width="200" height="50" class="box-warn"/>
  <text x="740" y="96" text-anchor="middle" class="label" font-size="13">Cron Job</text>
  <text x="740" y="112" text-anchor="middle" class="sublabel">Periodic ping to keep the service awake</text>

  <line x1="260" y1="100" x2="330" y2="107" class="arrow"/>
  <line x1="640" y1="100" x2="570" y2="107" class="arrow"/>

  <rect x="330" y="130" width="240" height="55" class="box-accent"/>
  <text x="450" y="153" text-anchor="middle" class="label">Slack Channel</text>
  <text x="450" y="170" text-anchor="middle" class="sublabel">#general (Socket Mode)</text>

  <line x1="450" y1="185" x2="450" y2="220" class="arrow"/>

  <rect x="300" y="220" width="300" height="60" class="box"/>
  <text x="450" y="245" text-anchor="middle" class="label">Claim Classifier</text>
  <text x="450" y="263" text-anchor="middle" class="sublabel">Groq (Llama 3.1) — is this a status/decision claim?</text>

  <line x1="450" y1="280" x2="450" y2="315" class="arrow"/>

  <rect x="380" y="315" width="140" height="45" class="box" transform="rotate(0)"/>
  <text x="450" y="342" text-anchor="middle" class="sublabel" font-weight="600">Is it a claim?</text>

  <line x1="380" y1="337" x2="220" y2="337" class="arrow"/>
  <text x="300" y="330" text-anchor="middle" class="branch-label">No</text>
  
  <rect x="140" y="315" width="150" height="45" class="box"/>
  <text x="215" y="342" text-anchor="middle" class="sublabel">Ignore message</text>

  <line x1="450" y1="360" x2="450" y2="395" class="arrow"/>
  <text x="465" y="380" class="branch-label">Yes</text>

  <text x="450" y="415" text-anchor="middle" font-size="13" font-weight="700" fill="#333">Evidence Retrieval</text>

  <line x1="450" y1="425" x2="230" y2="460" class="arrow"/>
  <line x1="450" y1="425" x2="450" y2="460" class="arrow"/>
  <line x1="450" y1="425" x2="670" y2="460" class="arrow"/>

  <rect x="100" y="460" width="220" height="55" class="box-accent"/>
  <text x="210" y="483" text-anchor="middle" class="label" font-size="13">Slack History</text>
  <text x="210" y="500" text-anchor="middle" class="sublabel">Same-channel context, always available</text>

  <rect x="340" y="460" width="220" height="55" class="box-accent"/>
  <text x="450" y="483" text-anchor="middle" class="label" font-size="13">Real-Time Search API</text>
  <text x="450" y="500" text-anchor="middle" class="sublabel">Workspace-wide, when @-mentioned</text>

  <rect x="580" y="460" width="220" height="55" class="box-warn"/>
  <text x="690" y="483" text-anchor="middle" class="label" font-size="13">MCP Connector</text>
  <text x="690" y="500" text-anchor="middle" class="sublabel">GitHub/deployment events (seeded for demo)</text>

  <line x1="210" y1="515" x2="450" y2="550" class="arrow"/>
  <line x1="450" y1="515" x2="450" y2="550" class="arrow"/>
  <line x1="690" y1="515" x2="450" y2="550" class="arrow"/>

  <rect x="270" y="550" width="360" height="65" class="box"/>
  <text x="450" y="575" text-anchor="middle" class="label">LLM-as-Judge</text>
  <text x="450" y="593" text-anchor="middle" class="sublabel">Verdict: SUPPORTS / CONTRADICTS / INSUFFICIENT</text>
  <text x="450" y="608" text-anchor="middle" class="sublabel">+ confidence estimate + explanation</text>

  <line x1="450" y1="615" x2="450" y2="650" class="arrow"/>

  <rect x="380" y="650" width="140" height="45" class="box"/>
  <text x="450" y="677" text-anchor="middle" class="sublabel" font-weight="600">SUPPORTS?</text>

  <line x1="380" y1="672" x2="220" y2="672" class="arrow"/>
  <text x="300" y="665" text-anchor="middle" class="branch-label">Yes</text>
  
  <rect x="140" y="650" width="150" height="45" class="box"/>
  <text x="215" y="677" text-anchor="middle" class="sublabel">Stay silent</text>

  <line x1="450" y1="695" x2="450" y2="730" class="arrow"/>
  <text x="465" y="715" class="branch-label">Contradicts / Insufficient</text>

  <rect x="300" y="730" width="300" height="60" class="box-accent"/>
  <text x="450" y="755" text-anchor="middle" class="label">Block Kit Card Builder</text>
  <text x="450" y="773" text-anchor="middle" class="sublabel">Claim vs evidence, confidence badge, sources</text>

  <line x1="450" y1="790" x2="450" y2="825" class="arrow"/>

  <rect x="330" y="825" width="240" height="55" class="box-accent"/>
  <text x="450" y="848" text-anchor="middle" class="label">Posted to Thread</text>
  <text x="450" y="865" text-anchor="middle" class="sublabel">Directly under the original claim</text>

  <rect x="60" y="950" width="18" height="18" class="box-accent"/>
  <text x="85" y="964" font-size="12" fill="#333">Slack-native components</text>
  <rect x="60" y="980" width="18" height="18" class="box-warn"/>
  <text x="85" y="994" font-size="12" fill="#333">External/infra: real connection, MCP data seeded for demo</text>
</svg>
