<svg viewBox="0 0 900 1000" xmlns="http://www.w3.org/2000/svg" font-family="Helvetica, Arial, sans-serif">
  <defs>
    <marker id="arrow" markerWidth="10" markerHeight="10" refX="8" refY="3" orient="auto" markerUnits="strokeWidth">
      <path d="M0,0 L0,6 L9,3 z" fill="#444"/>
    </marker>
  </defs>

  <style>
    .box { fill: #f5f5f7; stroke: #333; stroke-width: 1.5; rx: 8; }
    .box-accent { fill: #eef4ff; stroke: #2b5fad; stroke-width: 1.5; rx: 8; }
    .box-warn { fill: #fff4e5; stroke: #b5760a; stroke-width: 1.5; rx: 8; }
    .label { font-size: 15px; fill: #111; font-weight: 600; }
    .sublabel { font-size: 11px; fill: #555; }
    .arrow { stroke: #444; stroke-width: 1.5; fill: none; marker-end: url(#arrow); }
    .branch-label { font-size: 12px; fill: #333; font-weight: 600; }
  </style>

  <text x="450" y="35" text-anchor="middle" font-size="22" font-weight="700" fill="#111">Signal — Architecture</text>
  <text x="450" y="58" text-anchor="middle" font-size="13" fill="#666">Slack claim verification agent</text>

  <!-- Slack channel -->
  <rect x="330" y="80" width="240" height="55" class="box-accent"/>
  <text x="450" y="103" text-anchor="middle" class="label">Slack Channel</text>
  <text x="450" y="120" text-anchor="middle" class="sublabel">#claim-verification (Socket Mode)</text>

  <line x1="450" y1="135" x2="450" y2="170" class="arrow"/>

  <!-- Claim classifier -->
  <rect x="300" y="170" width="300" height="60" class="box"/>
  <text x="450" y="195" text-anchor="middle" class="label">Claim Classifier</text>
  <text x="450" y="213" text-anchor="middle" class="sublabel">Gemini 1.5 Flash — is this a status/decision claim?</text>

  <line x1="450" y1="230" x2="450" y2="265" class="arrow"/>

  <!-- Decision diamond (represented as small box) -->
  <rect x="380" y="265" width="140" height="45" class="box" transform="rotate(0)"/>
  <text x="450" y="292" text-anchor="middle" class="sublabel" font-weight="600">Is it a claim?</text>

  <line x1="380" y1="287" x2="220" y2="287" class="arrow"/>
  <text x="290" y="278" text-anchor="middle" class="branch-label">No</text>
  <rect x="140" y="265" width="150" height="45" class="box"/>
  <text x="215" y="292" text-anchor="middle" class="sublabel">Ignore message</text>

  <line x1="450" y1="310" x2="450" y2="345" class="arrow"/>
  <text x="465" y="330" class="branch-label">Yes</text>

  <!-- Evidence retrieval header -->
  <text x="450" y="365" text-anchor="middle" font-size="13" font-weight="700" fill="#333">Evidence Retrieval</text>

  <line x1="450" y1="375" x2="300" y2="410" class="arrow"/>
  <line x1="450" y1="375" x2="600" y2="410" class="arrow"/>

  <!-- Slack RTS box -->
  <rect x="160" y="410" width="280" height="55" class="box-accent"/>
  <text x="300" y="433" text-anchor="middle" class="label">Slack Context</text>
  <text x="300" y="450" text-anchor="middle" class="sublabel">Recent channel history (RTS pattern)</text>

  <!-- MCP box -->
  <rect x="460" y="410" width="280" height="55" class="box-warn"/>
  <text x="600" y="433" text-anchor="middle" class="label">MCP Connector</text>
  <text x="600" y="450" text-anchor="middle" class="sublabel">GitHub/deployment events (seeded for demo)</text>

  <line x1="300" y1="465" x2="450" y2="500" class="arrow"/>
  <line x1="600" y1="465" x2="450" y2="500" class="arrow"/>

  <!-- LLM as judge -->
  <rect x="270" y="500" width="360" height="65" class="box"/>
  <text x="450" y="525" text-anchor="middle" class="label">LLM-as-Judge</text>
  <text x="450" y="543" text-anchor="middle" class="sublabel">Verdict: SUPPORTS / CONTRADICTS / INSUFFICIENT</text>
  <text x="450" y="558" text-anchor="middle" class="sublabel">+ confidence estimate + explanation</text>

  <line x1="450" y1="565" x2="450" y2="600" class="arrow"/>

  <!-- Branch: supports vs not -->
  <rect x="380" y="600" width="140" height="45" class="box"/>
  <text x="450" y="627" text-anchor="middle" class="sublabel" font-weight="600">SUPPORTS?</text>

  <line x1="380" y1="622" x2="220" y2="622" class="arrow"/>
  <text x="290" y="613" text-anchor="middle" class="branch-label">Yes</text>
  <rect x="140" y="600" width="150" height="45" class="box"/>
  <text x="215" y="627" text-anchor="middle" class="sublabel">Stay silent</text>

  <line x1="450" y1="645" x2="450" y2="680" class="arrow"/>
  <text x="465" y="665" class="branch-label">Contradicts / Insufficient</text>

  <!-- Block kit -->
  <rect x="300" y="680" width="300" height="60" class="box-accent"/>
  <text x="450" y="705" text-anchor="middle" class="label">Block Kit Card Builder</text>
  <text x="450" y="723" text-anchor="middle" class="sublabel">Claim vs evidence, confidence badge, sources</text>

  <line x1="450" y1="740" x2="450" y2="775" class="arrow"/>

  <!-- Posted to thread -->
  <rect x="330" y="775" width="240" height="55" class="box-accent"/>
  <text x="450" y="798" text-anchor="middle" class="label">Posted to Thread</text>
  <text x="450" y="815" text-anchor="middle" class="sublabel">Directly under the original claim</text>

  <!-- Legend -->
  <rect x="60" y="900" width="18" height="18" class="box-accent"/>
  <text x="85" y="914" font-size="12" fill="#333">Slack-native components</text>
  <rect x="60" y="930" width="18" height="18" class="box-warn"/>
  <text x="85" y="944" font-size="12" fill="#333">External/MCP-connected (seeded data for demo)</text>
</svg>
